<svg width="70" height="70" viewBox="0 0 70 70" fill="none" xmlns="http://www.w3.org/2000/svg">
  <path d="M0 0H5V5H0V0Z" fill="url(#paint0_linear_2262_247)" fill-opacity="0.4" />
  <path d="M0 26H5V31H0V26Z" fill="url(#paint1_linear_2262_247)" fill-opacity="0.4" />
  <path d="M0 52H5V57H0V52Z" fill="url(#paint2_linear_2262_247)" fill-opacity="0.4" />
  <path d="M13 0H18V5H13V0Z" fill="url(#paint3_linear_2262_247)" fill-opacity="0.4" />
  <path d="M13 26H18V31H13V26Z" fill="url(#paint4_linear_2262_247)" fill-opacity="0.4" />
  <path d="M13 52H18V57H13V52Z" fill="url(#paint5_linear_2262_247)" fill-opacity="0.4" />
  <path d="M0 13H5V18H0V13Z" fill="url(#paint6_linear_2262_247)" fill-opacity="0.4" />
  <path d="M0 39H5V44H0V39Z" fill="url(#paint7_linear_2262_247)" fill-opacity="0.4" />
  <path d="M0 65H5V70H0V65Z" fill="url(#paint8_linear_2262_247)" fill-opacity="0.4" />
  <path d="M26 0H31V5H26V0Z" fill="url(#paint9_linear_2262_247)" fill-opacity="0.4" />
  <path d="M26 26H31V31H26V26Z" fill="url(#paint10_linear_2262_247)" fill-opacity="0.4" />
  <path d="M26 52H31V57H26V52Z" fill="url(#paint11_linear_2262_247)" fill-opacity="0.4" />
  <path d="M13 13H18V18H13V13Z" fill="url(#paint12_linear_2262_247)" fill-opacity="0.4" />
  <path d="M13 39H18V44H13V39Z" fill="url(#paint13_linear_2262_247)" fill-opacity="0.4" />
  <path d="M13 65H18V70H13V65Z" fill="url(#paint14_linear_2262_247)" fill-opacity="0.4" />
  <path d="M39 0H44V5H39V0Z" fill="url(#paint15_linear_2262_247)" fill-opacity="0.4" />
  <path d="M39 26H44V31H39V26Z" fill="url(#paint16_linear_2262_247)" fill-opacity="0.4" />
  <path d="M39 52H44V57H39V52Z" fill="url(#paint17_linear_2262_247)" fill-opacity="0.4" />
  <path d="M26 13H31V18H26V13Z" fill="url(#paint18_linear_2262_247)" fill-opacity="0.4" />
  <path d="M26 39H31V44H26V39Z" fill="url(#paint19_linear_2262_247)" fill-opacity="0.4" />
  <path d="M26 65H31V70H26V65Z" fill="url(#paint20_linear_2262_247)" fill-opacity="0.4" />
  <path d="M52 0H57V5H52V0Z" fill="url(#paint21_linear_2262_247)" fill-opacity="0.4" />
  <path d="M52 26H57V31H52V26Z" fill="url(#paint22_linear_2262_247)" fill-opacity="0.4" />
  <path d="M52 52H57V57H52V52Z" fill="url(#paint23_linear_2262_247)" fill-opacity="0.4" />
  <path d="M39 13H44V18H39V13Z" fill="url(#paint24_linear_2262_247)" fill-opacity="0.4" />
  <path d="M39 39H44V44H39V39Z" fill="url(#paint25_linear_2262_247)" fill-opacity="0.4" />
  <path d="M39 65H44V70H39V65Z" fill="url(#paint26_linear_2262_247)" fill-opacity="0.4" />
  <path d="M65 0H70V5H65V0Z" fill="url(#paint27_linear_2262_247)" fill-opacity="0.4" />
  <path d="M65 26H70V31H65V26Z" fill="url(#paint28_linear_2262_247)" fill-opacity="0.4" />
  <path d="M65 52H70V57H65V52Z" fill="url(#paint29_linear_2262_247)" fill-opacity="0.4" />
  <path d="M52 13H57V18H52V13Z" fill="url(#paint30_linear_2262_247)" fill-opacity="0.4" />
  <path d="M65 13H70V18H65V13Z" fill="url(#paint31_linear_2262_247)" fill-opacity="0.4" />
  <path d="M52 39H57V44H52V39Z" fill="url(#paint32_linear_2262_247)" fill-opacity="0.4" />
  <path d="M65 39H70V44H65V39Z" fill="url(#paint33_linear_2262_247)" fill-opacity="0.4" />
  <path d="M52 65H57V70H52V65Z" fill="url(#paint34_linear_2262_247)" fill-opacity="0.4" />
  <path d="M65 65H70V70H65V65Z" fill="url(#paint35_linear_2262_247)" fill-opacity="0.4" />
  <defs>
    <linearGradient id="paint0_linear_2262_247" x1="3.23" y1="-1.12316e-07" x2="66.77" y2="70"
      gradientUnits="userSpaceOnUse">
      <stop stop-color="#FCCA46" />
      <stop offset="1" stop-color="#96782A" />
    </linearGradient>
    <linearGradient id="paint1_linear_2262_247" x1="3.23" y1="-1.12316e-07" x2="66.77" y2="70"
      gradientUnits="userSpaceOnUse">
      <stop stop-color="#FCCA46" />
      <stop offset="1" stop-color="#96782A" />
    </linearGradient>
    <linearGradient id="paint2_linear_2262_247" x1="3.23" y1="-1.12316e-07" x2="66.77" y2="70"
      gradientUnits="userSpaceOnUse">
      <stop stop-color="#FCCA46" />
      <stop offset="1" stop-color="#96782A" />
    </linearGradient>
    <linearGradient id="paint3_linear_2262_247" x1="3.23" y1="-1.12316e-07" x2="66.77" y2="70"
      gradientUnits="userSpaceOnUse">
      <stop stop-color="#FCCA46" />
      <stop offset="1" stop-color="#96782A" />
    </linearGradient>
    <linearGradient id="paint4_linear_2262_247" x1="3.23" y1="-1.12316e-07" x2="66.77" y2="70"
      gradientUnits="userSpaceOnUse">
      <stop stop-color="#FCCA46" />
      <stop offset="1" stop-color="#96782A" />
    </linearGradient>
    <linearGradient id="paint5_linear_2262_247" x1="3.23" y1="-1.12316e-07" x2="66.77" y2="70"
      gradientUnits="userSpaceOnUse">
      <stop stop-color="#FCCA46" />
      <stop offset="1" stop-color="#96782A" />
    </linearGradient>
    <linearGradient id="paint6_linear_2262_247" x1="3.23" y1="-1.12316e-07" x2="66.77" y2="70"
      gradientUnits="userSpaceOnUse">
      <stop stop-color="#FCCA46" />
      <stop offset="1" stop-color="#96782A" />
    </linearGradient>
    <linearGradient id="paint7_linear_2262_247" x1="3.23" y1="-1.12316e-07" x2="66.77" y2="70"
      gradientUnits="userSpaceOnUse">
      <stop stop-color="#FCCA46" />
      <stop offset="1" stop-color="#96782A" />
    </linearGradient>
    <linearGradient id="paint8_linear_2262_247" x1="3.23" y1="-1.12316e-07" x2="66.77" y2="70"
      gradientUnits="userSpaceOnUse">
      <stop stop-color="#FCCA46" />
      <stop offset="1" stop-color="#96782A" />
    </linearGradient>
    <linearGradient id="paint9_linear_2262_247" x1="3.23" y1="-1.12316e-07" x2="66.77" y2="70"
      gradientUnits="userSpaceOnUse">
      <stop stop-color="#FCCA46" />
      <stop offset="1" stop-color="#96782A" />
    </linearGradient>
    <linearGradient id="paint10_linear_2262_247" x1="3.23" y1="-1.12316e-07" x2="66.77" y2="70"
      gradientUnits="userSpaceOnUse">
      <stop stop-color="#FCCA46" />
      <stop offset="1" stop-color="#96782A" />
    </linearGradient>
    <linearGradient id="paint11_linear_2262_247" x1="3.23" y1="-1.12316e-07" x2="66.77" y2="70"
      gradientUnits="userSpaceOnUse">
      <stop stop-color="#FCCA46" />
      <stop offset="1" stop-color="#96782A" />
    </linearGradient>
    <linearGradient id="paint12_linear_2262_247" x1="3.23" y1="-1.12316e-07" x2="66.77" y2="70"
      gradientUnits="userSpaceOnUse">
      <stop stop-color="#FCCA46" />
      <stop offset="1" stop-color="#96782A" />
    </linearGradient>
    <linearGradient id="paint13_linear_2262_247" x1="3.23" y1="-1.12316e-07" x2="66.77" y2="70"
      gradientUnits="userSpaceOnUse">
      <stop stop-color="#FCCA46" />
      <stop offset="1" stop-color="#96782A" />
    </linearGradient>
    <linearGradient id="paint14_linear_2262_247" x1="3.23" y1="-1.12316e-07" x2="66.77" y2="70"
      gradientUnits="userSpaceOnUse">
      <stop stop-color="#FCCA46" />
      <stop offset="1" stop-color="#96782A" />
    </linearGradient>
    <linearGradient id="paint15_linear_2262_247" x1="3.23" y1="-1.12316e-07" x2="66.77" y2="70"
      gradientUnits="userSpaceOnUse">
      <stop stop-color="#FCCA46" />
      <stop offset="1" stop-color="#96782A" />
    </linearGradient>
    <linearGradient id="paint16_linear_2262_247" x1="3.23" y1="-1.12316e-07" x2="66.77" y2="70"
      gradientUnits="userSpaceOnUse">
      <stop stop-color="#FCCA46" />
      <stop offset="1" stop-color="#96782A" />
    </linearGradient>
    <linearGradient id="paint17_linear_2262_247" x1="3.23" y1="-1.12316e-07" x2="66.77" y2="70"
      gradientUnits="userSpaceOnUse">
      <stop stop-color="#FCCA46" />
      <stop offset="1" stop-color="#96782A" />
    </linearGradient>
    <linearGradient id="paint18_linear_2262_247" x1="3.23" y1="-1.12316e-07" x2="66.77" y2="70"
      gradientUnits="userSpaceOnUse">
      <stop stop-color="#FCCA46" />
      <stop offset="1" stop-color="#96782A" />
    </linearGradient>
    <linearGradient id="paint19_linear_2262_247" x1="3.23" y1="-1.12316e-07" x2="66.77" y2="70"
      gradientUnits="userSpaceOnUse">
      <stop stop-color="#FCCA46" />
      <stop offset="1" stop-color="#96782A" />
    </linearGradient>
    <linearGradient id="paint20_linear_2262_247" x1="3.23" y1="-1.12316e-07" x2="66.77" y2="70"
      gradientUnits="userSpaceOnUse">
      <stop stop-color="#FCCA46" />
      <stop offset="1" stop-color="#96782A" />
    </linearGradient>
    <linearGradient id="paint21_linear_2262_247" x1="3.23" y1="-1.12316e-07" x2="66.77" y2="70"
      gradientUnits="userSpaceOnUse">
      <stop stop-color="#FCCA46" />
      <stop offset="1" stop-color="#96782A" />
    </linearGradient>
    <linearGradient id="paint22_linear_2262_247" x1="3.23" y1="-1.12316e-07" x2="66.77" y2="70"
      gradientUnits="userSpaceOnUse">
      <stop stop-color="#FCCA46" />
      <stop offset="1" stop-color="#96782A" />
    </linearGradient>
    <linearGradient id="paint23_linear_2262_247" x1="3.23" y1="-1.12316e-07" x2="66.77" y2="70"
      gradientUnits="userSpaceOnUse">
      <stop stop-color="#FCCA46" />
      <stop offset="1" stop-color="#96782A" />
    </linearGradient>
    <linearGradient id="paint24_linear_2262_247" x1="3.23" y1="-1.12316e-07" x2="66.77" y2="70"
      gradientUnits="userSpaceOnUse">
      <stop stop-color="#FCCA46" />
      <stop offset="1" stop-color="#96782A" />
    </linearGradient>
    <linearGradient id="paint25_linear_2262_247" x1="3.23" y1="-1.12316e-07" x2="66.77" y2="70"
      gradientUnits="userSpaceOnUse">
      <stop stop-color="#FCCA46" />
      <stop offset="1" stop-color="#96782A" />
    </linearGradient>
    <linearGradient id="paint26_linear_2262_247" x1="3.23" y1="-1.12316e-07" x2="66.77" y2="70"
      gradientUnits="userSpaceOnUse">
      <stop stop-color="#FCCA46" />
      <stop offset="1" stop-color="#96782A" />
    </linearGradient>
    <linearGradient id="paint27_linear_2262_247" x1="3.23" y1="-1.12316e-07" x2="66.77" y2="70"
      gradientUnits="userSpaceOnUse">
      <stop stop-color="#FCCA46" />
      <stop offset="1" stop-color="#96782A" />
    </linearGradient>
    <linearGradient id="paint28_linear_2262_247" x1="3.23" y1="-1.12316e-07" x2="66.77" y2="70"
      gradientUnits="userSpaceOnUse">
      <stop stop-color="#FCCA46" />
      <stop offset="1" stop-color="#96782A" />
    </linearGradient>
    <linearGradient id="paint29_linear_2262_247" x1="3.23" y1="-1.12316e-07" x2="66.77" y2="70"
      gradientUnits="userSpaceOnUse">
      <stop stop-color="#FCCA46" />
      <stop offset="1" stop-color="#96782A" />
    </linearGradient>
    <linearGradient id="paint30_linear_2262_247" x1="3.23" y1="-1.12316e-07" x2="66.77" y2="70"
      gradientUnits="userSpaceOnUse">
      <stop stop-color="#FCCA46" />
      <stop offset="1" stop-color="#96782A" />
    </linearGradient>
    <linearGradient id="paint31_linear_2262_247" x1="3.23" y1="-1.12316e-07" x2="66.77" y2="70"
      gradientUnits="userSpaceOnUse">
      <stop stop-color="#FCCA46" />
      <stop offset="1" stop-color="#96782A" />
    </linearGradient>
    <linearGradient id="paint32_linear_2262_247" x1="3.23" y1="-1.12316e-07" x2="66.77" y2="70"
      gradientUnits="userSpaceOnUse">
      <stop stop-color="#FCCA46" />
      <stop offset="1" stop-color="#96782A" />
    </linearGradient>
    <linearGradient id="paint33_linear_2262_247" x1="3.23" y1="-1.12316e-07" x2="66.77" y2="70"
      gradientUnits="userSpaceOnUse">
      <stop stop-color="#FCCA46" />
      <stop offset="1" stop-color="#96782A" />
    </linearGradient>
    <linearGradient id="paint34_linear_2262_247" x1="3.23" y1="-1.12316e-07" x2="66.77" y2="70"
      gradientUnits="userSpaceOnUse">
      <stop stop-color="#FCCA46" />
      <stop offset="1" stop-color="#96782A" />
    </linearGradient>
    <linearGradient id="paint35_linear_2262_247" x1="3.23" y1="-1.12316e-07" x2="66.77" y2="70"
      gradientUnits="userSpaceOnUse">
      <stop stop-color="#FCCA46" />
      <stop offset="1" stop-color="#96782A" />
    </linearGradient>
  </defs>
</svg>