<svg width="135" height="135" viewBox="0 0 135 135" fill="none" xmlns="http://www.w3.org/2000/svg">
<rect width="135" height="135" rx="26" fill="#252525"/>
<path d="M94.324 39.3892H50.3287L42.4065 47.2975V95.6108H73.3907V105.5H32.5V43.2013L46.2254 29.5H94.324V39.3892Z" fill="#FCCA46"/>
<path d="M53.151 87.0036C52.3116 87.0036 51.5357 86.8005 50.8234 86.3941C50.1365 85.9878 49.5896 85.4419 49.1826 84.7562C48.7755 84.0452 48.572 83.2706 48.572 82.4326V81.3661H51.6629V82.4326C51.6629 82.8389 51.8028 83.1945 52.0826 83.4992C52.3879 83.7785 52.744 83.9182 53.151 83.9182H71.4671C71.8741 83.9182 72.2175 83.7785 72.4973 83.4992C72.8026 83.1945 72.9553 82.8389 72.9553 82.4326V76.2999C72.9553 75.8936 72.8026 75.5507 72.4973 75.2714C72.2175 74.9921 71.8741 74.8524 71.4671 74.8524H53.151C52.3116 74.8524 51.5357 74.6493 50.8234 74.2429C50.1365 73.8112 49.5896 73.2526 49.1826 72.5669C48.7755 71.8813 48.572 71.1194 48.572 70.2814V64.1487C48.572 63.3107 48.7755 62.5488 49.1826 61.8632C49.5896 61.1521 50.1365 60.5935 50.8234 60.1872C51.5357 59.7808 52.3116 59.5777 53.151 59.5777H71.4671C72.3066 59.5777 73.0697 59.7808 73.7566 60.1872C74.4689 60.5935 75.0285 61.1521 75.4355 61.8632C75.8426 62.5488 76.0461 63.3107 76.0461 64.1487V65.2152H72.9553V64.1487C72.9553 63.7424 72.8026 63.3995 72.4973 63.1202C72.2175 62.8155 71.8741 62.6631 71.4671 62.6631H53.151C52.744 62.6631 52.3879 62.8155 52.0826 63.1202C51.8028 63.3995 51.6629 63.7424 51.6629 64.1487V70.2814C51.6629 70.6877 51.8028 71.0306 52.0826 71.3099C52.3879 71.5892 52.744 71.7289 53.151 71.7289H71.4671C72.3066 71.7289 73.0697 71.9447 73.7566 72.3765C74.4689 72.7828 75.0285 73.3287 75.4355 74.0144C75.8426 74.7 76.0461 75.4619 76.0461 76.2999V82.4326C76.0461 83.2706 75.8426 84.0452 75.4355 84.7562C75.0285 85.4419 74.4689 85.9878 73.7566 86.3941C73.0697 86.8005 72.3066 87.0036 71.4671 87.0036H53.151Z" fill="white"/>
<path d="M84.5655 87.0036C83.7261 87.0036 82.9502 86.8005 82.2379 86.3941C81.551 85.9624 80.9914 85.4038 80.5589 84.7181C80.1519 84.0071 79.9484 83.2325 79.9484 82.3945V69.5196C79.9484 68.6816 80.1519 67.9197 80.5589 67.2341C80.9914 66.523 81.551 65.9644 82.2379 65.5581C82.9502 65.1264 83.7261 64.9105 84.5655 64.9105H97.8447C98.7096 64.9105 99.4855 65.1264 100.172 65.5581C100.885 65.9644 101.444 66.523 101.851 67.2341C102.284 67.9197 102.5 68.6816 102.5 69.5196V77.5188H83.0774V82.3945C83.0774 82.8008 83.2173 83.1564 83.4971 83.4611C83.8024 83.7404 84.1585 83.8801 84.5655 83.8801H102.5V87.0036H84.5655ZM83.0774 74.3953H99.3328V69.5196C99.3328 69.1133 99.1802 68.7705 98.8749 68.4911C98.5951 68.1864 98.2517 68.034 97.8447 68.034H84.5655C84.1585 68.034 83.8024 68.1864 83.4971 68.4911C83.2173 68.7705 83.0774 69.1133 83.0774 69.5196V74.3953Z" fill="white"/>
<path d="M55.6225 51.5748C55.3584 51.5748 55.1089 51.5235 54.874 51.421C54.6392 51.3184 54.435 51.1731 54.2613 50.9851C54.0901 50.7971 53.9666 50.5749 53.8907 50.3185L54.7456 50.0878C54.8068 50.2978 54.9181 50.4601 55.0795 50.5749C55.2434 50.6872 55.4232 50.7422 55.6189 50.7397C55.7925 50.7397 55.9479 50.6994 56.0848 50.6188C56.2218 50.5383 56.3294 50.4296 56.4077 50.2929C56.486 50.1537 56.5251 49.9986 56.5251 49.8277C56.5251 49.5664 56.4407 49.3479 56.272 49.1721C56.1032 48.9963 55.8855 48.9084 55.6189 48.9084C55.5381 48.9084 55.4586 48.9194 55.3804 48.9413C55.3045 48.9633 55.2312 48.9938 55.1602 49.0329L54.7566 48.337L56.5325 46.8207L56.6095 47.0331H54.0962V46.2017H57.336V47.0368L55.9087 48.4066L55.9014 48.1466C56.2218 48.1685 56.4945 48.2577 56.7196 48.4139C56.9471 48.5702 57.1207 48.7716 57.2406 49.0183C57.3629 49.2649 57.424 49.5347 57.424 49.8277C57.424 50.1598 57.3421 50.4577 57.1782 50.7214C57.0168 50.9851 56.7991 51.1939 56.5251 51.3477C56.2536 51.4991 55.9527 51.5748 55.6225 51.5748Z" fill="#FCCA46"/>
<path d="M60.5688 51.4759V50.6042H58.228V49.7801L59.9194 46.2017H60.9284L59.237 49.7801H60.5688V48.4066H61.4641V49.7801H61.9594V50.6042H61.4641V51.4759H60.5688Z" fill="#FCCA46"/>
<path d="M81.1435 103.486L82.9634 99.0464H80.6555V98.2113H83.91V99.0464L82.0975 103.486H81.1435Z" fill="#FCCA46"/>
<path d="M86.5165 103.595C86.1667 103.595 85.8561 103.525 85.5846 103.383C85.3131 103.241 85.1003 103.045 84.9462 102.793C84.792 102.542 84.715 102.254 84.715 101.929C84.715 101.638 84.7823 101.369 84.9168 101.119C85.0513 100.87 85.2482 100.671 85.5075 100.522L85.4892 100.804C85.2862 100.651 85.1284 100.474 85.0159 100.273C84.9058 100.071 84.8508 99.8436 84.8508 99.5921C84.8508 99.2894 84.9217 99.0269 85.0636 98.8047C85.2079 98.5825 85.4048 98.4103 85.6543 98.2882C85.9038 98.1637 86.1912 98.1014 86.5165 98.1014C86.8418 98.1014 87.1292 98.1637 87.3787 98.2882C87.6307 98.4103 87.8276 98.5825 87.9695 98.8047C88.1138 99.0269 88.1859 99.2894 88.1859 99.5921C88.1859 99.8436 88.1321 100.07 88.0245 100.27C87.9193 100.47 87.7591 100.651 87.5439 100.812L87.5402 100.526C87.7946 100.67 87.989 100.868 88.1236 101.119C88.2605 101.369 88.329 101.638 88.329 101.929C88.329 102.254 88.2508 102.542 88.0942 102.793C87.9401 103.045 87.7261 103.241 87.4521 103.383C87.1806 103.525 86.8687 103.595 86.5165 103.595ZM86.5165 102.764C86.7758 102.764 86.9862 102.693 87.1476 102.552C87.3115 102.41 87.3934 102.202 87.3934 101.929C87.3934 101.655 87.3127 101.448 87.1513 101.306C86.9898 101.162 86.7782 101.09 86.5165 101.09C86.2572 101.09 86.0481 101.162 85.8891 101.306C85.7301 101.448 85.6506 101.655 85.6506 101.929C85.6506 102.202 85.7301 102.41 85.8891 102.552C86.0481 102.693 86.2572 102.764 86.5165 102.764ZM86.5165 100.251C86.7342 100.251 86.9103 100.198 87.0449 100.09C87.1818 99.9804 87.2503 99.8143 87.2503 99.5921C87.2503 99.3699 87.1818 99.2051 87.0449 99.0977C86.9103 98.9878 86.7342 98.9329 86.5165 98.9329C86.3013 98.9329 86.1251 98.9878 85.9882 99.0977C85.8536 99.2051 85.7864 99.3699 85.7864 99.5921C85.7864 99.8143 85.8536 99.9804 85.9882 100.09C86.1251 100.198 86.3013 100.251 86.5165 100.251Z" fill="#FCCA46"/>
<path d="M89.4283 103.486V102.581H90.3346V103.486H89.4283Z" fill="#FCCA46"/>
<path d="M93.2164 98.1088C93.5613 98.1088 93.8719 98.1906 94.1483 98.3542C94.4247 98.5153 94.6424 98.74 94.8014 99.0281C94.9628 99.3138 95.0436 99.6434 95.0436 100.017V101.625C95.0436 102.023 94.9628 102.371 94.8014 102.669C94.6424 102.964 94.4186 103.193 94.13 103.354C93.8413 103.515 93.5038 103.595 93.1173 103.595C92.8507 103.595 92.5987 103.55 92.3615 103.46C92.1242 103.367 91.9114 103.225 91.723 103.035L92.3578 102.416C92.4532 102.526 92.5669 102.613 92.699 102.676C92.8336 102.737 92.973 102.768 93.1173 102.768C93.3228 102.768 93.5025 102.72 93.6566 102.625C93.8107 102.527 93.9306 102.401 94.0162 102.248C94.1018 102.091 94.1446 101.924 94.1446 101.746V100.87L94.3024 101.046C94.1532 101.222 93.9722 101.36 93.7594 101.46C93.5466 101.558 93.3228 101.607 93.0879 101.607C92.7577 101.607 92.4642 101.531 92.2074 101.38C91.953 101.228 91.7524 101.023 91.6056 100.764C91.4613 100.503 91.3892 100.207 91.3892 99.8778C91.3892 99.5482 91.4723 99.2503 91.6387 98.9841C91.805 98.7156 92.0264 98.5031 92.3028 98.3468C92.5816 98.1881 92.8861 98.1088 93.2164 98.1088ZM93.2164 98.9512C93.0451 98.9512 92.8886 98.9927 92.7467 99.0757C92.6049 99.1587 92.4923 99.271 92.4092 99.4127C92.326 99.5519 92.2844 99.7069 92.2844 99.8778C92.2844 100.049 92.3248 100.205 92.4055 100.347C92.4887 100.488 92.6 100.601 92.7394 100.684C92.8813 100.767 93.0378 100.808 93.209 100.808C93.3802 100.808 93.5368 100.767 93.6787 100.684C93.8205 100.601 93.9331 100.488 94.0162 100.347C94.1018 100.205 94.1446 100.049 94.1446 99.8778C94.1446 99.7118 94.1031 99.5592 94.0199 99.42C93.9367 99.2784 93.8242 99.1648 93.6823 99.0794C93.5429 98.9939 93.3876 98.9512 93.2164 98.9512Z" fill="#FCCA46"/>
<path d="M96.3143 103.486L98.1341 99.0464H95.8263V98.2113H99.0807V99.0464L97.2682 103.486H96.3143Z" fill="#FCCA46"/>
<path d="M100.876 103.486V99.1746L99.8858 99.7789V98.8047L100.876 98.2113H101.779V103.486H100.876Z" fill="#FCCA46"/>
</svg>
