<svg width="163" height="61" viewBox="0 0 163 61" fill="none" xmlns="http://www.w3.org/2000/svg">
  <path
    d="M49.2168 7.93735H14.1931L7.88637 14.2848V53.0626H26.58V61H0V10.9971L10.9265 0H49.2168V7.93735Z"
    fill="#FCCA46" />
  <path
    d="M16.4399 46.1542C15.7716 46.1542 15.1539 45.9912 14.5869 45.665C14.0401 45.3389 13.6047 44.9007 13.2806 44.3504C12.9566 43.7797 12.7946 43.158 12.7946 42.4854V41.6293H15.2552V42.4854C15.2552 42.8115 15.3665 43.0969 15.5893 43.3415C15.8323 43.5657 16.1158 43.6778 16.4399 43.6778H31.0209C31.3449 43.6778 31.6183 43.5657 31.8411 43.3415C32.0841 43.0969 32.2056 42.8115 32.2056 42.4854V37.5631C32.2056 37.2369 32.0841 36.9618 31.8411 36.7376C31.6183 36.5134 31.3449 36.4013 31.0209 36.4013H16.4399C15.7716 36.4013 15.1539 36.2382 14.5869 35.9121C14.0401 35.5656 13.6047 35.1172 13.2806 34.5669C12.9566 34.0165 12.7946 33.4051 12.7946 32.7325V27.8101C12.7946 27.1375 12.9566 26.526 13.2806 25.9757C13.6047 25.405 14.0401 24.9566 14.5869 24.6305C15.1539 24.3044 15.7716 24.1413 16.4399 24.1413H31.0209C31.6892 24.1413 32.2967 24.3044 32.8435 24.6305C33.4106 24.9566 33.8561 25.405 34.1801 25.9757C34.5041 26.526 34.6661 27.1375 34.6661 27.8101V28.6662H32.2056V27.8101C32.2056 27.484 32.0841 27.2088 31.8411 26.9846C31.6183 26.74 31.3449 26.6178 31.0209 26.6178H16.4399C16.1158 26.6178 15.8323 26.74 15.5893 26.9846C15.3665 27.2088 15.2552 27.484 15.2552 27.8101V32.7325C15.2552 33.0586 15.3665 33.3337 15.5893 33.5579C15.8323 33.7821 16.1158 33.8942 16.4399 33.8942H31.0209C31.6892 33.8942 32.2967 34.0675 32.8435 34.414C33.4106 34.7401 33.8561 35.1783 34.1801 35.7287C34.5041 36.279 34.6661 36.8904 34.6661 37.5631V42.4854C34.6661 43.158 34.5041 43.7797 34.1801 44.3504C33.8561 44.9007 33.4106 45.3389 32.8435 45.665C32.2967 45.9912 31.6892 46.1542 31.0209 46.1542H16.4399Z"
    fill="white" />
  <path
    d="M41.4483 46.1542C40.78 46.1542 40.1623 45.9912 39.5953 45.665C39.0485 45.3185 38.603 44.8701 38.2587 44.3198C37.9347 43.7491 37.7727 43.1274 37.7727 42.4548V32.121C37.7727 31.4484 37.9347 30.8369 38.2587 30.2866C38.603 29.7159 39.0485 29.2675 39.5953 28.9413C40.1623 28.5948 40.78 28.4216 41.4483 28.4216H52.0195C52.7081 28.4216 53.3258 28.5948 53.8726 28.9413C54.4396 29.2675 54.8851 29.7159 55.2091 30.2866C55.5534 30.8369 55.7256 31.4484 55.7256 32.121V38.5414H40.2636V42.4548C40.2636 42.7809 40.375 43.0663 40.5977 43.3109C40.8408 43.5351 41.1243 43.6472 41.4483 43.6472H55.7256V46.1542H41.4483ZM40.2636 36.0344H53.2043V32.121C53.2043 31.7949 53.0827 31.5197 52.8397 31.2955C52.617 31.0509 52.3436 30.9286 52.0195 30.9286H41.4483C41.1243 30.9286 40.8408 31.0509 40.5977 31.2955C40.375 31.5197 40.2636 31.7949 40.2636 32.121V36.0344Z"
    fill="white" />
  <path
    d="M61.918 46.1542C61.2497 46.1542 60.632 45.9912 60.065 45.665C59.5182 45.3185 59.0727 44.8701 58.7284 44.3198C58.4044 43.7491 58.2424 43.1274 58.2424 42.4548V22.6126H60.7333V42.4548C60.7333 42.7809 60.8447 43.0663 61.0674 43.3109C61.3104 43.5351 61.594 43.6472 61.918 43.6472H64.8949V46.1542H61.918Z"
    fill="white" />
  <path
    d="M70.6092 46.1542C69.9409 46.1542 69.3232 45.9912 68.7562 45.665C68.2094 45.3185 67.7638 44.8701 67.4196 44.3198C67.0955 43.7491 66.9335 43.1274 66.9335 42.4548V32.121C66.9335 31.4484 67.0955 30.8369 67.4196 30.2866C67.7638 29.7159 68.2094 29.2675 68.7562 28.9413C69.3232 28.5948 69.9409 28.4216 70.6092 28.4216H81.1804C81.8689 28.4216 82.4866 28.5948 83.0334 28.9413C83.6004 29.2675 84.046 29.7159 84.37 30.2866C84.7143 30.8369 84.8864 31.4484 84.8864 32.121V38.5414H69.4245V42.4548C69.4245 42.7809 69.5358 43.0663 69.7586 43.3109C70.0016 43.5351 70.2851 43.6472 70.6092 43.6472H84.8864V46.1542H70.6092ZM69.4245 36.0344H82.3651V32.121C82.3651 31.7949 82.2436 31.5197 82.0006 31.2955C81.7778 31.0509 81.5044 30.9286 81.1804 30.9286H70.6092C70.2851 30.9286 70.0016 31.0509 69.7586 31.2955C69.5358 31.5197 69.4245 31.7949 69.4245 32.121V36.0344Z"
    fill="white" />
  <path
    d="M88.0573 46.1542V28.4216H102.335C103.003 28.4216 103.61 28.5948 104.157 28.9413C104.724 29.2675 105.17 29.7159 105.494 30.2866C105.838 30.8369 106.01 31.4484 106.01 32.121V46.1542H103.519V32.121C103.519 31.7949 103.398 31.5197 103.155 31.2955C102.932 31.0509 102.659 30.9286 102.335 30.9286H91.7633C91.4392 30.9286 91.1557 31.0509 90.9127 31.2955C90.6697 31.5197 90.5482 31.7949 90.5482 32.121V46.1542H88.0573Z"
    fill="white" />
  <path
    d="M109.148 46.1542V28.4216H111.639V46.1542H109.148ZM109.148 25.1197V22.6126H111.639V25.1197H109.148Z"
    fill="white" />
  <path
    d="M119.172 46.1542C118.504 46.1542 117.886 45.9912 117.319 45.665C116.773 45.3185 116.327 44.8701 115.983 44.3198C115.659 43.7491 115.497 43.1274 115.497 42.4548V28.4216H117.988V42.4548C117.988 42.7809 118.099 43.0663 118.322 43.3109C118.565 43.5351 118.848 43.6472 119.172 43.6472H129.744C130.068 43.6472 130.351 43.5351 130.594 43.3109C130.837 43.0663 130.959 42.7809 130.959 42.4548V28.4216H133.45V42.4548C133.45 43.1274 133.278 43.7491 132.933 44.3198C132.609 44.8701 132.164 45.3185 131.597 45.665C131.05 45.9912 130.432 46.1542 129.744 46.1542H119.172Z"
    fill="white" />
  <path
    d="M136.055 46.1542V28.4216H159.324C160.013 28.4216 160.631 28.5948 161.177 28.9413C161.744 29.2675 162.19 29.7159 162.514 30.2866C162.838 30.8369 163 31.4484 163 32.121V46.1542H160.539V32.121C160.539 31.7949 160.418 31.5197 160.175 31.2955C159.932 31.0509 159.648 30.9286 159.324 30.9286H152.003C151.679 30.9286 151.396 31.0509 151.153 31.2955C150.93 31.5197 150.819 31.7949 150.819 32.121V46.1542H148.297V32.121C148.297 31.7949 148.176 31.5197 147.933 31.2955C147.71 31.0509 147.437 30.9286 147.113 30.9286H139.762C139.437 30.9286 139.154 31.0509 138.911 31.2955C138.688 31.5197 138.577 31.7949 138.577 32.121V46.1542H136.055Z"
    fill="white" />
  <path
    d="M18.4074 17.7179C18.1971 17.7179 17.9984 17.6768 17.8115 17.5945C17.6246 17.5121 17.462 17.3955 17.3237 17.2446C17.1874 17.0937 17.0891 16.9154 17.0287 16.7096L17.7093 16.5244C17.758 16.6929 17.8466 16.8233 17.9751 16.9154C18.1055 17.0055 18.2487 17.0496 18.4044 17.0477C18.5427 17.0477 18.6664 17.0153 18.7754 16.9506C18.8844 16.886 18.9701 16.7988 19.0324 16.689C19.0947 16.5773 19.1259 16.4529 19.1259 16.3157C19.1259 16.106 19.0587 15.9306 18.9244 15.7894C18.79 15.6483 18.6167 15.5778 18.4044 15.5778C18.3402 15.5778 18.2769 15.5866 18.2146 15.6042C18.1542 15.6219 18.0958 15.6464 18.0393 15.6777L17.718 15.1192L19.1317 13.9021L19.1931 14.0726H17.1923V13.4053H19.7714V14.0756L18.6352 15.175L18.6294 14.9663C18.8844 14.984 19.1016 15.0555 19.2807 15.1809C19.4618 15.3063 19.6001 15.468 19.6955 15.666C19.7928 15.8639 19.8415 16.0805 19.8415 16.3157C19.8415 16.5822 19.7763 16.8213 19.6458 17.033C19.5173 17.2446 19.344 17.4122 19.1259 17.5357C18.9098 17.6572 18.6702 17.7179 18.4074 17.7179Z"
    fill="#FCCA46" />
  <path
    d="M22.345 17.6386V16.9389H20.4815V16.2774L21.828 13.4053H22.6313L21.2848 16.2774H22.345V15.175H23.0577V16.2774H23.452V16.9389H23.0577V17.6386H22.345Z"
    fill="#FCCA46" />
  <path d="M32.0216 59.3831L33.4703 55.8201H31.6331V55.1499H34.2239V55.8201L32.781 59.3831H32.0216Z"
    fill="#FCCA46" />
  <path
    d="M36.2989 59.4713C36.0205 59.4713 35.7732 59.4145 35.557 59.3008C35.3409 59.1871 35.1715 59.0294 35.0488 58.8275C34.9261 58.6257 34.8648 58.3944 34.8648 58.1337C34.8648 57.9005 34.9183 57.6839 35.0254 57.484C35.1325 57.2841 35.2893 57.1244 35.4957 57.0049L35.4811 57.2312C35.3195 57.1078 35.1939 56.9657 35.1043 56.805C35.0167 56.6423 34.9729 56.46 34.9729 56.2582C34.9729 56.0151 35.0293 55.8045 35.1423 55.6261C35.2571 55.4478 35.4139 55.3096 35.6125 55.2116C35.8111 55.1117 36.0399 55.0617 36.2989 55.0617C36.5579 55.0617 36.7867 55.1117 36.9853 55.2116C37.1859 55.3096 37.3427 55.4478 37.4556 55.6261C37.5705 55.8045 37.6279 56.0151 37.6279 56.2582C37.6279 56.46 37.5851 56.6413 37.4994 56.802C37.4157 56.9627 37.2881 57.1078 37.1168 57.2371L37.1139 57.0078C37.3164 57.1234 37.4712 57.2822 37.5783 57.484C37.6873 57.6839 37.7418 57.9005 37.7418 58.1337C37.7418 58.3944 37.6795 58.6257 37.5549 58.8275C37.4322 59.0294 37.2618 59.1871 37.0438 59.3008C36.8276 59.4145 36.5793 59.4713 36.2989 59.4713ZM36.2989 58.804C36.5053 58.804 36.6728 58.7472 36.8013 58.6335C36.9318 58.5198 36.997 58.3532 36.997 58.1337C36.997 57.9142 36.9328 57.7476 36.8042 57.634C36.6757 57.5183 36.5073 57.4605 36.2989 57.4605C36.0925 57.4605 35.926 57.5183 35.7995 57.634C35.6729 57.7476 35.6096 57.9142 35.6096 58.1337C35.6096 58.3532 35.6729 58.5198 35.7995 58.6335C35.926 58.7472 36.0925 58.804 36.2989 58.804ZM36.2989 56.7873C36.4722 56.7873 36.6124 56.7442 36.7195 56.658C36.8286 56.5698 36.8831 56.4365 36.8831 56.2582C36.8831 56.0798 36.8286 55.9475 36.7195 55.8613C36.6124 55.7731 36.4722 55.729 36.2989 55.729C36.1276 55.729 35.9874 55.7731 35.8783 55.8613C35.7712 55.9475 35.7177 56.0798 35.7177 56.2582C35.7177 56.4365 35.7712 56.5698 35.8783 56.658C35.9874 56.7442 36.1276 56.7873 36.2989 56.7873Z"
    fill="#FCCA46" />
  <path d="M38.617 59.3831V58.657H39.3384V59.3831H38.617Z" fill="#FCCA46" />
  <path
    d="M41.6325 55.0676C41.9071 55.0676 42.1544 55.1332 42.3744 55.2645C42.5945 55.3939 42.7678 55.5742 42.8944 55.8054C43.0229 56.0347 43.0871 56.2993 43.0871 56.5992V57.8897C43.0871 58.2092 43.0229 58.4885 42.8944 58.7276C42.7678 58.9647 42.5896 59.1479 42.3598 59.2773C42.1301 59.4066 41.8613 59.4713 41.5537 59.4713C41.3414 59.4713 41.1409 59.4351 40.952 59.3625C40.7631 59.2881 40.5937 59.1744 40.4437 59.0215L40.9491 58.5247C41.025 58.6129 41.1155 58.6825 41.2207 58.7334C41.3278 58.7824 41.4388 58.8069 41.5537 58.8069C41.7172 58.8069 41.8604 58.7687 41.983 58.6923C42.1057 58.6139 42.2011 58.513 42.2693 58.3895C42.3374 58.2641 42.3715 58.1298 42.3715 57.9867V57.2841L42.4971 57.4253C42.3783 57.5664 42.2342 57.6771 42.0648 57.7574C41.8954 57.8358 41.7172 57.875 41.5303 57.875C41.2674 57.875 41.0338 57.8143 40.8293 57.6928C40.6268 57.5713 40.4671 57.4066 40.3503 57.1989C40.2354 56.9892 40.1779 56.752 40.1779 56.4875C40.1779 56.2229 40.2442 55.9838 40.3766 55.7702C40.509 55.5546 40.6852 55.3841 40.9052 55.2586C41.1272 55.1313 41.3697 55.0676 41.6325 55.0676ZM41.6325 55.7437C41.4962 55.7437 41.3716 55.777 41.2587 55.8437C41.1457 55.9103 41.0562 56.0005 40.99 56.1141C40.9237 56.2258 40.8906 56.3503 40.8906 56.4875C40.8906 56.6247 40.9228 56.7501 40.987 56.8638C41.0532 56.9774 41.1418 57.0676 41.2528 57.1342C41.3658 57.2009 41.4904 57.2342 41.6267 57.2342C41.763 57.2342 41.8876 57.2009 42.0006 57.1342C42.1135 57.0676 42.2031 56.9774 42.2693 56.8638C42.3374 56.7501 42.3715 56.6247 42.3715 56.4875C42.3715 56.3542 42.3384 56.2317 42.2722 56.12C42.206 56.0063 42.1164 55.9152 42.0035 55.8466C41.8925 55.778 41.7689 55.7437 41.6325 55.7437Z"
    fill="#FCCA46" />
  <path
    d="M44.0987 59.3831L45.5475 55.8201H43.7102V55.1499H46.3011V55.8201L44.8581 59.3831H44.0987Z"
    fill="#FCCA46" />
  <path d="M47.7306 59.3831V55.923L46.9419 56.4081V55.6261L47.7306 55.1499H48.4491V59.3831H47.7306Z"
    fill="#FCCA46" />
</svg>