<svg width="38" height="38" viewBox="0 0 38 38" fill="none" xmlns="http://www.w3.org/2000/svg">
<rect x="0.5" y="0.5" width="37" height="37" stroke="white" stroke-opacity="0.5"/>
<path d="M19 14.4772C16.5021 14.4772 14.4772 16.5021 14.4772 19C14.4772 19.9792 14.7884 20.8858 15.3173 21.6261M19 14.4772C21.4979 14.4772 23.5228 16.5021 23.5228 19C23.5228 19.6845 23.3708 20.3334 23.0986 20.9149M19 14.4772H30.1185M30.1185 14.4772C28.3327 10.0915 24.0274 7 19 7C15.2674 7 11.9329 8.70418 9.73196 11.3769M30.1185 14.4772C30.6868 15.873 31 17.3999 31 19C31 25.6274 25.6274 31 19 31C18.4243 31 17.858 30.9595 17.304 30.8811M15.3173 21.6261C16.1375 22.7743 17.4814 23.5228 19 23.5228C20.8134 23.5228 22.3776 22.4555 23.0986 20.9149M15.3173 21.6261L9.73196 11.3769M9.73196 11.3769C8.02504 13.4497 7 16.1052 7 19C7 25.0517 11.4797 30.0571 17.304 30.8811M23.0986 20.9149L17.304 30.8811" stroke="white" stroke-opacity="0.5"/>
<path d="M19 21.5C18.5295 21.3964 17.7045 21.0328 17.3265 20.3119M19 21.5C19.4705 21.3964 20.2955 21.0328 20.6735 20.3119M19 21.5V18.6617M17.1272 19.4868C17.1272 19.0472 17.1456 18.7344 17.1844 18.5132M17.1272 19.4868H16M17.1272 19.4868C17.1272 19.8023 17.203 20.0762 17.3265 20.3119M17.6474 18.0016C17.6474 18.3647 17.9595 18.6617 19 18.6617M17.6474 18.0016C17.4082 18.0016 17.2588 18.0899 17.1844 18.5132M17.6474 18.0016C17.6474 17.7213 17.726 17.2738 18.3237 17.0844M19 18.6617C20.0405 18.6617 20.3526 18.3647 20.3526 18.0017M17.1844 18.5132C16.8879 18.4747 16.2948 18.236 16.2948 17.5891M17.3265 20.3119C16.9826 20.3614 16.2948 20.6419 16.2948 21.368M20.8728 19.4868C20.8728 19.0473 20.8544 18.7345 20.8156 18.5132M20.8728 19.4868H22M20.8728 19.4868C20.8728 19.8023 20.797 20.0762 20.6735 20.3119M20.3526 18.0017C20.5918 18.0017 20.7412 18.0899 20.8156 18.5132M20.3526 18.0017C20.3526 17.7213 20.274 17.2738 19.6763 17.0844M20.8156 18.5132C21.1121 18.4747 21.7052 18.236 21.7052 17.5891M20.6735 20.3119C21.0174 20.3614 21.7052 20.6419 21.7052 21.368M18.3237 17.0844C18.5001 17.0284 18.7218 16.995 19 16.995C19.2782 16.995 19.4999 17.0284 19.6763 17.0844M18.3237 17.0844C18.3526 16.8896 18.5283 16.5 19 16.5C19.4717 16.5 19.6474 16.8896 19.6763 17.0844" stroke="white" stroke-opacity="0.5"/>
</svg>
