<svg width="24" height="24" viewBox="0 0 24 24" fill="none" xmlns="http://www.w3.org/2000/svg">
  <path
    d="M17.0887 8.58518V6.20352C17.4017 6.05643 17.6667 5.82297 17.8529 5.53032C18.0391 5.23768 18.1388 4.89788 18.1404 4.55048V4.49578C18.1404 3.48288 17.3237 2.66176 16.3163 2.66176H16.2619C15.7781 2.66176 15.3142 2.85499 14.9721 3.19893C14.63 3.54288 14.4378 4.00937 14.4378 4.49578V4.55048C14.4394 4.89788 14.5391 5.23768 14.7253 5.53032C14.9115 5.82297 15.1766 6.05643 15.4896 6.20352V8.58518C14.5899 8.72369 13.7426 9.09874 13.0335 9.67236L6.53704 4.58491C6.58338 4.41677 6.60756 4.2439 6.61024 4.07036C6.61104 3.66163 6.49125 3.26184 6.26604 2.92156C6.04082 2.58128 5.72029 2.31581 5.345 2.15871C4.9697 2.00162 4.55649 1.95996 4.15765 2.03902C3.7588 2.11807 3.39223 2.31428 3.10431 2.60282C2.81638 2.89137 2.62004 3.25929 2.54011 3.66005C2.46019 4.0608 2.50027 4.47639 2.65529 4.85424C2.8103 5.2321 3.07329 5.55524 3.41098 5.78279C3.74868 6.01034 4.14591 6.13209 4.55243 6.13262C4.90808 6.13094 5.25707 6.03547 5.56455 5.85576L11.9616 10.8608C11.3869 11.7337 11.0871 12.7604 11.1013 13.8071C11.1154 14.8538 11.4428 15.872 12.0409 16.7289L10.0952 18.6858C9.93794 18.6352 9.77408 18.6084 9.60897 18.6061C9.27528 18.6064 8.94916 18.7061 8.67181 18.8927C8.39447 19.0792 8.17836 19.3443 8.05078 19.6543C7.9232 19.9643 7.88989 20.3054 7.95506 20.6344C8.02022 20.9635 8.18094 21.2657 8.4169 21.503C8.65285 21.7402 8.95345 21.9018 9.28072 21.9673C9.60799 22.0328 9.94723 21.9994 10.2556 21.8711C10.5639 21.7428 10.8275 21.5255 11.0131 21.2467C11.1986 20.9678 11.2978 20.6399 11.2981 20.3044C11.2959 20.1384 11.2692 19.9736 11.2188 19.8155L13.1436 17.8795C13.7713 18.3654 14.5013 18.7003 15.2776 18.8587C16.0539 19.0171 16.856 18.9948 17.6224 18.7934C18.3888 18.5919 19.0991 18.2168 19.699 17.6967C20.299 17.1766 20.7725 16.5254 21.0835 15.7929C21.3944 15.0603 21.5344 14.266 21.4928 13.4706C21.4513 12.6753 21.2292 11.9 20.8436 11.2043C20.458 10.5086 19.9191 9.91084 19.2683 9.45686C18.6174 9.00288 17.8718 8.7047 17.0887 8.58518ZM16.2908 16.4183C15.9351 16.4281 15.581 16.3662 15.2495 16.2361C14.918 16.106 14.6157 15.9104 14.3607 15.6609C14.1056 15.4114 13.9028 15.1131 13.7644 14.7834C13.626 14.4538 13.5546 14.0996 13.5546 13.7418C13.5546 13.384 13.626 13.0299 13.7644 12.7003C13.9028 12.3706 14.1056 12.0723 14.3607 11.8228C14.6157 11.5733 14.918 11.3777 15.2495 11.2476C15.581 11.1175 15.9351 11.0556 16.2908 11.0654C16.9803 11.0897 17.6334 11.3821 18.1128 11.8809C18.5921 12.3798 18.8602 13.0462 18.8605 13.7399C18.8609 14.4335 18.5935 15.1002 18.1146 15.5996C17.6358 16.0989 16.9829 16.3919 16.2935 16.4169"
    fill="currentColor" />
</svg>