<svg width="24" height="24" viewBox="0 0 24 24" fill="none" xmlns="http://www.w3.org/2000/svg">
  <path
    d="M2.65882 8.95455H3.60485L5.82928 14.3878H5.90598L8.13042 8.95455H9.07644V15.5H8.33496V10.527H8.27104L6.22559 15.5H5.50968L3.46422 10.527H3.4003V15.5H2.65882V8.95455ZM15.9327 11H15.1401C15.0932 10.772 15.0112 10.5717 14.894 10.3991C14.7789 10.2266 14.6383 10.0817 14.4721 9.96449C14.3081 9.84517 14.1259 9.75568 13.9256 9.69602C13.7253 9.63636 13.5165 9.60653 13.2992 9.60653C12.9029 9.60653 12.5439 9.70668 12.2221 9.90696C11.9025 10.1072 11.6479 10.4023 11.4583 10.7923C11.2708 11.1822 11.177 11.6605 11.177 12.2273C11.177 12.794 11.2708 13.2724 11.4583 13.6623C11.6479 14.0522 11.9025 14.3473 12.2221 14.5476C12.5439 14.7479 12.9029 14.848 13.2992 14.848C13.5165 14.848 13.7253 14.8182 13.9256 14.7585C14.1259 14.6989 14.3081 14.6104 14.4721 14.4933C14.6383 14.3739 14.7789 14.228 14.894 14.0554C15.0112 13.8807 15.0932 13.6804 15.1401 13.4545H15.9327C15.873 13.7891 15.7644 14.0884 15.6067 14.3526C15.449 14.6168 15.253 14.8416 15.0186 15.027C14.7843 15.2102 14.5211 15.3498 14.2292 15.4457C13.9395 15.5415 13.6294 15.5895 13.2992 15.5895C12.7409 15.5895 12.2445 15.4531 11.8098 15.1804C11.3752 14.9077 11.0332 14.5199 10.7839 14.017C10.5346 13.5142 10.41 12.9176 10.41 12.2273C10.41 11.5369 10.5346 10.9403 10.7839 10.4375C11.0332 9.93466 11.3752 9.54688 11.8098 9.27415C12.2445 9.00142 12.7409 8.86506 13.2992 8.86506C13.6294 8.86506 13.9395 8.913 14.2292 9.00888C14.5211 9.10476 14.7843 9.24538 15.0186 9.43075C15.253 9.61399 15.449 9.83771 15.6067 10.1019C15.7644 10.364 15.873 10.6634 15.9327 11ZM17.2135 15.5V8.95455H19.4252C19.9387 8.95455 20.3584 9.04723 20.6844 9.2326C21.0125 9.41584 21.2554 9.66406 21.4131 9.97727C21.5708 10.2905 21.6496 10.6399 21.6496 11.0256C21.6496 11.4112 21.5708 11.7617 21.4131 12.0771C21.2575 12.3924 21.0168 12.6438 20.6908 12.8313C20.3648 13.0167 19.9472 13.1094 19.4379 13.1094H17.8527V12.4062H19.4124C19.7639 12.4062 20.0463 12.3455 20.2593 12.2241C20.4724 12.1026 20.6269 11.9386 20.7227 11.7319C20.8208 11.5231 20.8698 11.2876 20.8698 11.0256C20.8698 10.7635 20.8208 10.5291 20.7227 10.3224C20.6269 10.1158 20.4713 9.95384 20.2561 9.83665C20.0409 9.71733 19.7554 9.65767 19.3996 9.65767H18.0061V15.5H17.2135Z"
    fill="currentColor" />
</svg>