<svg width="38" height="38" viewBox="0 0 38 38" fill="none" xmlns="http://www.w3.org/2000/svg">
<rect x="0.5" y="0.5" width="37" height="37" stroke="white" stroke-opacity="0.5"/>
<path d="M18.8612 26C18.7825 26 18.7038 25.9786 18.6325 25.9429L17.9125 25.5357C17.8038 25.4786 17.8563 25.4571 17.8938 25.4464C18.0363 25.4 18.0663 25.3893 18.22 25.3035C18.235 25.2964 18.2575 25.3 18.2725 25.3071L18.8275 25.6214C18.8463 25.6321 18.8763 25.6321 18.895 25.6214L21.0625 24.4285C21.0813 24.4178 21.0963 24.3964 21.0963 24.3714V21.9891C21.0963 21.9641 21.085 21.9427 21.0625 21.932L18.895 20.7427C18.8763 20.7319 18.85 20.7319 18.8275 20.7427L16.66 21.932C16.6375 21.9427 16.6263 21.9677 16.6263 21.9891V24.3714C16.6263 24.3928 16.6413 24.4142 16.66 24.4249L17.2525 24.75C17.575 24.9035 17.7738 24.7214 17.7738 24.5428V22.1891C17.7738 22.157 17.8 22.1284 17.8375 22.1284H18.1112C18.145 22.1284 18.175 22.1534 18.175 22.1891V24.5428C18.175 24.9535 17.9425 25.1857 17.5338 25.1857C17.41 25.1857 17.3088 25.1857 17.035 25.0571L16.465 24.7464C16.3263 24.6678 16.2363 24.5249 16.2363 24.3714V21.9891C16.2363 21.8356 16.3225 21.6891 16.465 21.6141L18.6325 20.4212C18.7713 20.3462 18.9513 20.3462 19.0863 20.4212L21.2538 21.6141C21.3925 21.6927 21.4825 21.8356 21.4825 21.9891V24.3714C21.4825 24.5249 21.3963 24.6714 21.2538 24.7464L19.0863 25.9393C19.0225 25.9786 18.9438 26 18.8612 26ZM20.6125 23.6499C20.6125 23.2035 20.2975 23.0856 19.63 22.9999C18.955 22.9142 18.8875 22.8713 18.8875 22.7213C18.8875 22.5963 18.9438 22.432 19.4425 22.432C19.8888 22.432 20.0538 22.5249 20.1213 22.8106C20.1287 22.8392 20.1513 22.857 20.1813 22.857H20.4625C20.4813 22.857 20.4963 22.8499 20.5075 22.8392C20.5188 22.8249 20.5263 22.8106 20.5225 22.7927C20.4775 22.2999 20.1363 22.0713 19.4425 22.0713C18.8237 22.0713 18.4563 22.3213 18.4563 22.7356C18.4563 23.1892 18.8238 23.3106 19.4163 23.3678C20.125 23.4356 20.1813 23.5321 20.1813 23.6642C20.1813 23.8964 19.9863 23.9928 19.5288 23.9928C18.955 23.9928 18.8275 23.8571 18.7863 23.5856C18.7825 23.5571 18.7563 23.5356 18.7225 23.5356H18.4413C18.4075 23.5356 18.3775 23.5606 18.3775 23.5963C18.3775 23.9428 18.5763 24.3571 19.525 24.3571C20.2188 24.3571 20.6125 24.0999 20.6125 23.6499ZM22.6563 21.8606C22.6563 22.0784 22.4688 22.257 22.24 22.257C22.0113 22.257 21.8238 22.0784 21.8238 21.8606C21.8238 21.6356 22.0188 21.4641 22.24 21.4641C22.465 21.4605 22.6563 21.6356 22.6563 21.8606ZM22.5888 21.8606C22.5888 21.6748 22.4313 21.5284 22.2362 21.5284C22.045 21.5284 21.8875 21.6748 21.8875 21.8606C21.8875 22.0463 22.045 22.1963 22.2362 22.1963C22.4313 22.1927 22.5888 22.0427 22.5888 21.8606ZM22.42 22.082H22.3225C22.3188 22.0606 22.3038 21.9463 22.3038 21.9427C22.2963 21.9177 22.2887 21.9034 22.255 21.9034H22.1725V22.082H22.0825V21.6356H22.2438C22.3 21.6356 22.4088 21.6356 22.4088 21.7534C22.4088 21.8356 22.3525 21.8534 22.3188 21.8641C22.3825 21.8677 22.3863 21.907 22.3975 21.9641C22.4013 21.9999 22.4088 22.0606 22.42 22.082ZM22.315 21.7677C22.315 21.707 22.27 21.707 22.2475 21.707H22.1725V21.832H22.2438C22.3038 21.832 22.315 21.7927 22.315 21.7677ZM12.1488 16.6782C12.1488 16.5818 12.0963 16.4961 12.01 16.4496L9.71125 15.1889C9.67375 15.1675 9.62875 15.1567 9.58375 15.1532H9.56125C9.51625 15.1532 9.475 15.1675 9.43375 15.1889L7.13875 16.4496C7.0525 16.4961 7 16.5854 7 16.6782L7.00375 20.0712C7.00375 20.1176 7.03 20.1605 7.07125 20.1855C7.1125 20.2105 7.165 20.2105 7.21 20.1855L8.575 19.439C8.66125 19.389 8.71375 19.3033 8.71375 19.2105V17.6247C8.71375 17.5318 8.76625 17.4425 8.8525 17.3961L9.43375 17.0782C9.47875 17.0532 9.52375 17.0425 9.5725 17.0425C9.62125 17.0425 9.67 17.0532 9.71125 17.0782L10.2925 17.3961C10.3788 17.4425 10.4313 17.5318 10.4313 17.6247V19.2105C10.4313 19.3033 10.4838 19.3926 10.57 19.439L11.935 20.1855C11.9763 20.2105 12.0325 20.2105 12.0738 20.1855C12.115 20.1641 12.1413 20.1176 12.1413 20.0712L12.1488 16.6782ZM24.7188 12.9745V19.2748C24.7188 19.3676 24.6663 19.4569 24.58 19.5033L22.2813 20.7677C22.195 20.8141 22.09 20.8141 22.0038 20.7677L19.705 19.5033C19.6187 19.4569 19.5663 19.3676 19.5663 19.2748V16.7461C19.5663 16.6532 19.6187 16.5639 19.705 16.5175L22.0038 15.2532C22.09 15.2067 22.195 15.2067 22.2813 15.2532L22.855 15.5675C22.9187 15.6032 23.0013 15.5568 23.0013 15.4889V12.1316C23.0013 12.0316 23.1138 11.9673 23.2075 12.0173L24.5763 12.7459C24.6625 12.7888 24.7188 12.8781 24.7188 12.9745ZM22.9938 17.5783C22.9938 17.5533 22.9788 17.5318 22.96 17.5211L22.1725 17.0854C22.15 17.0747 22.1238 17.0747 22.1013 17.0854L21.3138 17.5211C21.2913 17.5318 21.28 17.5533 21.28 17.5783V18.4461C21.28 18.4711 21.295 18.4926 21.3138 18.5033L22.1013 18.9355C22.1238 18.9462 22.15 18.9462 22.1688 18.9355L22.9563 18.5033C22.9788 18.4926 22.99 18.4711 22.99 18.4461V17.5783H22.9938ZM30.8612 17.5533C30.9475 17.5068 31 17.4175 31 17.3247V16.7139C31 16.6211 30.9475 16.5318 30.8612 16.4854L28.5775 15.221C28.4913 15.1746 28.3863 15.1746 28.3 15.221L26.0013 16.4854C25.915 16.5318 25.8625 16.6211 25.8625 16.7139V19.2426C25.8625 19.339 25.915 19.4248 26.0013 19.4712L28.285 20.7105C28.3675 20.7569 28.4725 20.7569 28.5588 20.7105L29.9388 19.9783C30.0325 19.9283 30.0325 19.7998 29.9388 19.7498L27.625 18.4854C27.58 18.4604 27.5537 18.4176 27.5537 18.3711V17.5783C27.5537 17.5318 27.58 17.489 27.625 17.464L28.345 17.0675C28.3863 17.0425 28.4425 17.0425 28.4838 17.0675L29.2038 17.464C29.245 17.489 29.275 17.5318 29.275 17.5783V18.1997C29.275 18.2997 29.3913 18.364 29.485 18.314L30.8612 17.5533ZM27.9625 17.6783C27.9475 17.689 27.9363 17.7033 27.9363 17.7211V18.2069C27.9363 18.2247 27.9475 18.2426 27.9625 18.2497L28.405 18.4926C28.42 18.5033 28.4425 18.5033 28.4575 18.4926L28.9 18.2497C28.915 18.239 28.9263 18.2247 28.9263 18.2069V17.7211C28.9263 17.7033 28.915 17.6854 28.9 17.6783L28.4575 17.4354C28.4425 17.4247 28.42 17.4247 28.405 17.4354L27.9625 17.6783ZM18.43 19.2319V16.7175C18.43 16.6247 18.37 16.5354 18.2838 16.4889L15.9925 15.2317C15.9138 15.1889 15.805 15.1817 15.715 15.2317L13.4238 16.4889C13.3375 16.5354 13.2775 16.6211 13.2775 16.7175V19.2319C13.2775 19.3319 13.3488 19.4176 13.4275 19.4605L15.7225 20.7177C15.8125 20.7677 15.9175 20.7641 16 20.7177L18.2875 19.4605C18.355 19.4248 18.4038 19.364 18.4225 19.2926C18.4263 19.2748 18.43 19.2533 18.43 19.2319ZM15.6438 14.771L15.6138 14.7889H15.655L15.6438 14.771ZM18.5013 19.4212L18.4862 19.3962V19.4283L18.5013 19.4212Z" fill="white" fill-opacity="0.5"/>
</svg>
