<svg width="24" height="24" viewBox="0 0 24 24" fill="none" xmlns="http://www.w3.org/2000/svg">
  <path
    d="M19.2748 11.9077C19.2748 12.2769 19.0901 12.3231 18.6282 12.3231C18.1201 12.3231 18.0277 12.2308 17.9815 11.8615C17.8891 10.8923 17.2425 10.0615 16.1339 10.0154C15.8106 9.96923 15.7182 9.87692 15.7182 9.41538C15.7182 9 15.7644 8.81538 16.0878 8.81538C17.9353 8.86154 19.2748 10.3846 19.2748 11.9077ZM22 11.9077C22 9.04615 20.06 6 15.5335 6H6.61894C6.43418 6 6.29561 6.09231 6.29561 6.27692C6.29561 6.36923 6.3418 6.46154 6.43418 6.50769C6.75751 6.78462 7.2194 7.06154 7.86605 7.38462C8.46651 7.70769 8.9746 7.89231 9.43649 8.07692C9.62125 8.16923 9.71363 8.26154 9.71363 8.35385C9.71363 8.49231 9.62125 8.63077 9.3903 8.63077H2.32333C2.09238 8.58462 2 8.72308 2 8.86154C2 9 2.04619 9.09231 2.13857 9.18462C2.69284 9.78462 3.61663 10.5231 4.95612 11.3538C6.11085 12.0923 7.58891 12.8769 8.74365 13.4308C8.92841 13.5231 9.02079 13.6154 9.02079 13.7538C9.02079 13.8923 8.92841 13.9846 8.69746 13.9846H5.41801C5.23326 13.9846 5.14088 14.0769 5.14088 14.2154C5.14088 14.3077 5.18707 14.4 5.27945 14.4923C6.01848 15.1846 7.2194 15.8769 8.78984 16.5692C10.9145 17.4462 13.0393 18 15.4411 18C20.0139 18 22 14.5846 22 11.9077ZM16.0416 16.0154C13.8245 16.0154 11.9307 14.2154 11.9307 11.9077C11.9307 9.69231 13.7783 7.89231 16.0416 7.89231C18.351 7.89231 20.1524 9.69231 20.1524 11.9077C20.1524 14.1692 18.351 16.0154 16.0416 16.0154Z"
    fill="currentColor" />
</svg>