<svg width="38" height="38" viewBox="0 0 38 38" fill="none" xmlns="http://www.w3.org/2000/svg">
<rect x="0.5" y="0.5" width="37" height="37" stroke="white" stroke-opacity="0.5"/>
<path d="M30.1473 9.53768L25.2102 7.1501C24.931 7.01412 24.6165 6.969 24.3106 7.02102C24.0047 7.07304 23.7225 7.21961 23.5033 7.44035L14.0469 16.1139L9.92583 12.9724C9.74024 12.8298 9.51072 12.7572 9.27731 12.7672C9.0439 12.7773 8.82141 12.8694 8.64864 13.0275L7.32869 14.2367C7.22552 14.3304 7.14299 14.4448 7.08638 14.5725C7.02978 14.7001 7.00036 14.8383 7 14.9781C6.99965 15.1179 7.02837 15.2562 7.08433 15.3841C7.14029 15.5121 7.22225 15.6269 7.32494 15.7211L10.8993 18.9998L7.32494 22.2785C7.22225 22.3728 7.14029 22.4875 7.08433 22.6155C7.02837 22.7435 6.99965 22.8818 7 23.0216C7.00036 23.1613 7.02978 23.2995 7.08638 23.4272C7.14299 23.5548 7.22552 23.6692 7.32869 23.7629L8.64864 24.9722C8.82141 25.1303 9.0439 25.2224 9.27731 25.2324C9.51072 25.2425 9.74024 25.1698 9.92583 25.0272L14.0469 21.882L23.5078 30.5593C23.7261 30.7802 24.0077 30.927 24.3131 30.979C24.6185 31.031 24.9324 30.9858 25.211 30.8495L30.1525 28.4582C30.4072 28.3355 30.622 28.1428 30.772 27.9023C30.922 27.6618 31.001 27.3835 31 27.0997V10.8947C31 10.3172 30.6678 9.78722 30.1488 9.53618L30.1473 9.53768ZM25.0025 24.4784L17.823 19.0006L25.0025 13.5228V24.4784Z" fill="white" fill-opacity="0.5"/>
</svg>
